<?xml version="1.0" encoding="UTF-8"?>
<svg width="226px" height="72px" viewBox="0 0 226 72" version="1.1" xmlns="http://www.w3.org/2000/svg" xmlns:xlink="http://www.w3.org/1999/xlink">
    <!-- Generator: Sketch 52.4 (67378) - http://www.bohemiancoding.com/sketch -->
    <title>cc-logo</title>
    <desc>Created with Sketch.</desc>
    <g id="Page-1" stroke="none" stroke-width="1" fill="none" fill-rule="evenodd">
        <g id="pink-theme-copy" transform="translate(-150.000000, -60.000000)" fill-rule="nonzero">
            <g id="cc-logo" transform="translate(150.000000, 60.000000)">
                <g id="Name">
                    <g id="Group">
                        <path d="M209.954978,68.5945946 C146.166234,53.3675676 79.687013,53.3675676 15.8982684,68.5945946 C11.691342,51.227027 7.53333333,33.8594595 3.32640693,16.4918919 C75.3822511,-0.72972973 150.470996,-0.72972973 222.52684,16.4918919 C218.319913,33.8594595 214.112987,51.227027 209.954978,68.5945946 Z" id="Shape" fill="#F1F2F2"></path>
                        <path d="M112.902165,3.6 C149.688312,3.6 186.474459,7.88108108 222.477922,16.4918919 C218.270996,33.8594595 214.112987,51.227027 209.906061,68.5945946 C178.011688,60.9567568 145.432468,57.1621622 112.902165,57.1621622 C80.3718615,57.1621622 47.7437229,60.9567568 15.8982684,68.5945946 C11.691342,51.227027 7.53333333,33.8594595 3.32640693,16.4918919 C39.3298701,7.88108108 76.1160173,3.6 112.902165,3.6 Z M112.902165,0.340540541 C75.7735931,0.340540541 38.6450216,4.71891892 2.54372294,13.3297297 C1.71212121,13.5243243 0.978354978,14.0594595 0.538095238,14.7891892 C0.0978354978,15.5189189 -0.0489177489,16.3945946 0.146753247,17.2702703 L8.51168831,52.0054054 L12.7186147,69.372973 C13.061039,70.8810811 14.4307359,71.8540541 15.8982684,71.8540541 C16.1428571,71.8540541 16.3874459,71.8054054 16.6809524,71.7567568 C48.1839827,64.2162162 80.5675325,60.4216216 112.951082,60.4216216 C145.334632,60.4216216 177.718182,64.2162162 209.221212,71.7567568 C209.465801,71.8054054 209.759307,71.8540541 210.003896,71.8540541 C211.471429,71.8540541 212.841126,70.8324324 213.18355,69.372973 L225.755411,17.2702703 C226.195671,15.5189189 225.070563,13.7675676 223.358442,13.3297297 C187.159307,4.71891892 150.030736,0.340540541 112.902165,0.340540541 Z" id="Shape" fill="#231F20"></path>
                    </g>
                    <g id="Group" transform="translate(63.103896, 45.729730)" fill="#231F20">
                        <path d="M8.07142857,8.31891892 C7.58225108,8.36756757 7.14199134,8.41621622 6.65281385,8.51351351 C6.11471861,7.2972973 5.52770563,6.03243243 4.94069264,4.81621622 C4.94069264,4.81621622 4.94069264,4.81621622 4.89177489,4.81621622 C4.64718615,6.12972973 4.45151515,7.49189189 4.25584416,8.80540541 C3.76666667,8.85405405 3.32640693,8.95135135 2.83722944,9 C2.00562771,7.2 1.17402597,5.35135135 0.293506494,3.55135135 C0.831601732,3.5027027 1.32077922,3.40540541 1.85887446,3.35675676 C2.34805195,4.57297297 2.83722944,5.78918919 3.32640693,7.00540541 C3.32640693,7.00540541 3.32640693,7.00540541 3.37532468,7.00540541 C3.57099567,5.69189189 3.71774892,4.37837838 3.91341991,3.06486486 C4.4025974,3.01621622 4.94069264,2.91891892 5.42987013,2.87027027 C5.96796537,4.08648649 6.45714286,5.3027027 6.9952381,6.51891892 C6.9952381,6.51891892 6.9952381,6.51891892 7.04415584,6.51891892 C7.19090909,5.20540541 7.33766234,3.94054054 7.53333333,2.62702703 C8.02251082,2.57837838 8.56060606,2.52972973 9.04978355,2.43243243 C8.75627706,4.42702703 8.41385281,6.37297297 8.07142857,8.31891892 Z" id="Shape"></path>
                        <path d="M10.8108225,8.02702703 C10.5662338,6.12972973 10.3705628,4.23243243 10.125974,2.33513514 C11.495671,2.18918919 12.8164502,2.04324324 14.1861472,1.8972973 C14.2350649,2.28648649 14.2839827,2.67567568 14.2839827,3.06486486 C13.4034632,3.16216216 12.5229437,3.25945946 11.6424242,3.35675676 C11.691342,3.6972973 11.7402597,4.08648649 11.7402597,4.42702703 C12.5718615,4.32972973 13.4034632,4.23243243 14.2350649,4.18378378 C14.2839827,4.57297297 14.3329004,4.91351351 14.3329004,5.3027027 C13.5012987,5.4 12.669697,5.44864865 11.887013,5.54594595 C11.9359307,5.93513514 11.9848485,6.32432432 12.0337662,6.71351351 C12.9632035,6.61621622 13.8926407,6.51891892 14.7731602,6.42162162 C14.8220779,6.81081081 14.8709957,7.2 14.9199134,7.58918919 C13.5502165,7.73513514 12.1805195,7.88108108 10.8108225,8.02702703 Z" id="Shape"></path>
                        <path d="M21.5238095,4.08648649 C21.5727273,4.57297297 21.5238095,5.01081081 21.3281385,5.4 C21.1813853,5.78918919 20.9367965,6.08108108 20.64329,6.37297297 C20.3497835,6.61621622 20.0073593,6.81081081 19.6160173,6.95675676 C19.2246753,7.1027027 18.8333333,7.2 18.4419913,7.24864865 C17.7082251,7.2972973 16.9744589,7.39459459 16.2406926,7.44324324 C16.0450216,5.54594595 15.8493506,3.64864865 15.6536797,1.75135135 C16.3874459,1.7027027 17.1212121,1.60540541 17.8060606,1.55675676 C18.2463203,1.50810811 18.6376623,1.50810811 19.0779221,1.60540541 C19.5181818,1.65405405 19.8606061,1.8 20.2030303,1.99459459 C20.5454545,2.18918919 20.838961,2.43243243 21.034632,2.82162162 C21.3770563,3.11351351 21.4748918,3.55135135 21.5238095,4.08648649 Z M20.0562771,4.23243243 C20.0073593,3.89189189 19.9584416,3.64864865 19.8116883,3.45405405 C19.6649351,3.25945946 19.5181818,3.11351351 19.3225108,2.96756757 C19.1268398,2.87027027 18.9311688,2.77297297 18.6865801,2.77297297 C18.4419913,2.72432432 18.1974026,2.72432432 17.9528139,2.77297297 C17.7082251,2.77297297 17.4636364,2.82162162 17.2190476,2.82162162 C17.3168831,3.94054054 17.4147186,5.05945946 17.5614719,6.17837838 C17.8060606,6.17837838 18.0017316,6.12972973 18.2463203,6.12972973 C18.4909091,6.12972973 18.7354978,6.03243243 18.9800866,5.98378378 C19.2246753,5.88648649 19.4203463,5.78918919 19.5670996,5.64324324 C19.7138528,5.4972973 19.8606061,5.3027027 19.9584416,5.10810811 C20.0562771,4.81621622 20.0562771,4.52432432 20.0562771,4.23243243 Z" id="Shape"></path>
                        <path d="M28.4212121,3.6 C28.4701299,4.08648649 28.3722944,4.52432432 28.2255411,4.91351351 C28.0787879,5.3027027 27.8341991,5.59459459 27.5406926,5.83783784 C27.2471861,6.08108108 26.9047619,6.27567568 26.5134199,6.42162162 C26.1220779,6.56756757 25.7307359,6.61621622 25.3393939,6.66486486 C24.6056277,6.71351351 23.8718615,6.76216216 23.1380952,6.81081081 C22.991342,4.91351351 22.8445887,3.01621622 22.6978355,1.11891892 C23.4316017,1.07027027 24.165368,1.02162162 24.8502165,0.972972973 C25.2904762,0.924324324 25.6818182,0.972972973 26.1220779,1.02162162 C26.5623377,1.07027027 26.9047619,1.21621622 27.2471861,1.41081081 C27.5896104,1.60540541 27.8831169,1.8972973 28.0787879,2.23783784 C28.2744589,2.62702703 28.4212121,3.06486486 28.4212121,3.6 Z M26.9536797,3.6972973 C26.9536797,3.35675676 26.8558442,3.11351351 26.7580087,2.91891892 C26.6112554,2.72432432 26.4645022,2.52972973 26.2688312,2.43243243 C26.0731602,2.33513514 25.8774892,2.23783784 25.6329004,2.18918919 C25.3883117,2.14054054 25.1437229,2.14054054 24.8991342,2.14054054 C24.6545455,2.14054054 24.4099567,2.18918919 24.165368,2.18918919 C24.2632035,3.30810811 24.3121212,4.42702703 24.4099567,5.54594595 C24.6545455,5.54594595 24.8502165,5.4972973 25.0948052,5.4972973 C25.3393939,5.4972973 25.5839827,5.44864865 25.8285714,5.35135135 C26.0731602,5.3027027 26.2688312,5.15675676 26.4155844,5.01081081 C26.6112554,4.86486486 26.7090909,4.67027027 26.8069264,4.47567568 C26.9536797,4.28108108 26.9536797,4.03783784 26.9536797,3.6972973 Z" id="Shape"></path>
                        <path d="M29.9865801,6.42162162 C29.8887446,4.52432432 29.7419913,2.62702703 29.6441558,0.681081081 C30.1333333,0.632432432 30.6225108,0.632432432 31.1116883,0.583783784 C31.2095238,2.48108108 31.3073593,4.37837838 31.4051948,6.32432432 C30.9160173,6.37297297 30.4268398,6.37297297 29.9865801,6.42162162 Z" id="Shape"></path>
                        <path d="M36.7372294,6.08108108 C35.9056277,4.86486486 35.074026,3.64864865 34.1935065,2.43243243 C34.1935065,2.43243243 34.1935065,2.43243243 34.1445887,2.43243243 C34.1935065,3.6972973 34.291342,4.91351351 34.3402597,6.17837838 C33.9,6.17837838 33.4108225,6.22702703 32.9705628,6.22702703 C32.8727273,4.32972973 32.7748918,2.43243243 32.6770563,0.486486486 C33.2151515,0.437837838 33.7532468,0.437837838 34.3402597,0.389189189 C35.1718615,1.60540541 36.052381,2.82162162 36.8839827,4.03783784 C36.8839827,4.03783784 36.8839827,4.03783784 36.9329004,4.03783784 C36.8839827,2.77297297 36.8350649,1.55675676 36.7861472,0.291891892 C37.2753247,0.291891892 37.7155844,0.243243243 38.2047619,0.243243243 C38.2536797,2.14054054 38.3515152,4.03783784 38.4004329,5.98378378 C37.8134199,6.08108108 37.2753247,6.08108108 36.7372294,6.08108108 Z" id="Shape"></path>
                        <path d="M44.221645,5.93513514 C43.830303,6.03243243 43.438961,6.08108108 42.9497835,6.08108108 C42.4606061,6.08108108 42.0203463,6.03243243 41.6290043,5.88648649 C41.2376623,5.74054054 40.8952381,5.54594595 40.6017316,5.3027027 C40.3082251,5.05945946 40.0636364,4.71891892 39.9168831,4.37837838 C39.7212121,3.98918919 39.6722944,3.6 39.6233766,3.16216216 C39.6233766,2.72432432 39.6722944,2.28648649 39.8190476,1.8972973 C39.9658009,1.50810811 40.2103896,1.21621622 40.5038961,0.924324324 C40.7974026,0.632432432 41.1398268,0.437837838 41.5311688,0.291891892 C41.9225108,0.145945946 42.3627706,0.0486486486 42.8030303,0.0486486486 C43.2922078,0.0486486486 43.7324675,0.0972972973 44.1238095,0.243243243 C44.5151515,0.389189189 44.8575758,0.535135135 45.1021645,0.778378378 C44.808658,1.11891892 44.5151515,1.45945946 44.221645,1.8 C44.0748918,1.65405405 43.8792208,1.50810811 43.6835498,1.41081081 C43.438961,1.31351351 43.1943723,1.26486486 42.9008658,1.26486486 C42.6562771,1.26486486 42.4116883,1.31351351 42.2160173,1.41081081 C42.0203463,1.50810811 41.8246753,1.65405405 41.6779221,1.8 C41.5311688,1.94594595 41.3844156,2.14054054 41.3354978,2.38378378 C41.2376623,2.62702703 41.2376623,2.82162162 41.2376623,3.11351351 C41.2376623,3.35675676 41.2865801,3.6 41.3844156,3.84324324 C41.4822511,4.08648649 41.5800866,4.23243243 41.7268398,4.42702703 C41.8735931,4.57297297 42.0692641,4.71891892 42.3138528,4.76756757 C42.5584416,4.86486486 42.8030303,4.91351351 43.0965368,4.86486486 C43.24329,4.86486486 43.438961,4.86486486 43.5857143,4.81621622 C43.7324675,4.76756757 43.8792208,4.76756757 43.9770563,4.67027027 C43.9770563,4.32972973 43.9770563,3.98918919 43.9770563,3.64864865 C43.5857143,3.64864865 43.24329,3.64864865 42.8519481,3.64864865 C42.8519481,3.25945946 42.8519481,2.91891892 42.8519481,2.52972973 C43.6835498,2.52972973 44.4662338,2.48108108 45.2978355,2.48108108 C45.2978355,3.5027027 45.3467532,4.52432432 45.3467532,5.4972973 C44.9064935,5.69189189 44.612987,5.83783784 44.221645,5.93513514 Z" id="Shape"></path>
                        <path d="M49.8961039,1.65405405 C49.7493506,1.50810811 49.6025974,1.36216216 49.4069264,1.31351351 C49.2112554,1.21621622 49.0155844,1.16756757 48.8199134,1.16756757 C48.7220779,1.16756757 48.6242424,1.16756757 48.5264069,1.21621622 C48.4285714,1.21621622 48.3307359,1.26486486 48.2818182,1.31351351 C48.1839827,1.36216216 48.1350649,1.41081081 48.0861472,1.50810811 C48.0372294,1.55675676 47.9883117,1.65405405 47.9883117,1.8 C47.9883117,1.8972973 47.9883117,1.99459459 48.0372294,2.04324324 C48.0861472,2.09189189 48.1350649,2.14054054 48.2329004,2.18918919 C48.3307359,2.23783784 48.4285714,2.28648649 48.5264069,2.33513514 C48.6242424,2.38378378 48.7709957,2.43243243 48.9177489,2.48108108 C49.1134199,2.52972973 49.3090909,2.62702703 49.5536797,2.67567568 C49.7493506,2.77297297 49.9939394,2.87027027 50.1406926,2.96756757 C50.3363636,3.11351351 50.4831169,3.25945946 50.5809524,3.45405405 C50.6787879,3.64864865 50.7766234,3.89189189 50.7766234,4.18378378 C50.7766234,4.52432432 50.7277056,4.81621622 50.5809524,5.05945946 C50.4341991,5.3027027 50.2874459,5.4972973 50.0917749,5.64324324 C49.8961039,5.78918919 49.6515152,5.93513514 49.3580087,5.98378378 C49.0645022,6.08108108 48.8199134,6.08108108 48.5264069,6.08108108 C48.0861472,6.08108108 47.6948052,6.03243243 47.3034632,5.88648649 C46.9121212,5.74054054 46.569697,5.54594595 46.3251082,5.3027027 C46.6186147,5.01081081 46.961039,4.67027027 47.2545455,4.37837838 C47.4012987,4.57297297 47.5969697,4.67027027 47.8415584,4.81621622 C48.0861472,4.91351351 48.3307359,5.01081081 48.5264069,5.01081081 C48.6242424,5.01081081 48.7220779,5.01081081 48.8199134,4.96216216 C48.9177489,4.96216216 49.0155844,4.91351351 49.0645022,4.86486486 C49.1623377,4.81621622 49.2112554,4.76756757 49.2601732,4.67027027 C49.3090909,4.57297297 49.3090909,4.47567568 49.3090909,4.37837838 C49.3090909,4.28108108 49.2601732,4.18378378 49.2112554,4.08648649 C49.1623377,3.98918919 49.0645022,3.94054054 48.9666667,3.89189189 C48.8688312,3.84324324 48.7220779,3.79459459 48.5753247,3.74594595 C48.4285714,3.6972973 48.2329004,3.64864865 48.0372294,3.6 C47.8415584,3.55135135 47.6458874,3.45405405 47.4991342,3.40540541 C47.3034632,3.30810811 47.15671,3.21081081 47.0099567,3.11351351 C46.8632035,2.96756757 46.765368,2.82162162 46.6675325,2.67567568 C46.569697,2.48108108 46.5207792,2.28648649 46.5207792,1.99459459 C46.5207792,1.65405405 46.569697,1.41081081 46.7164502,1.16756757 C46.8632035,0.924324324 47.0099567,0.72972973 47.2545455,0.583783784 C47.4502165,0.437837838 47.7437229,0.340540541 47.9883117,0.243243243 C48.2818182,0.194594595 48.5264069,0.145945946 48.8199134,0.145945946 C49.1623377,0.145945946 49.5047619,0.194594595 49.8471861,0.340540541 C50.1896104,0.437837838 50.4831169,0.632432432 50.7766234,0.875675676 C50.5320346,1.02162162 50.1896104,1.31351351 49.8961039,1.65405405 Z" id="Shape"></path>
                        <path d="M58.7502165,5.98378378 C58.5545455,5.78918919 58.4077922,5.59459459 58.2121212,5.4 C58.0164502,5.59459459 57.7718615,5.74054054 57.5272727,5.88648649 C57.2337662,5.98378378 56.891342,6.08108108 56.5,6.03243243 C56.2554113,6.03243243 55.9619048,5.98378378 55.717316,5.93513514 C55.4727273,5.88648649 55.2281385,5.74054054 55.0324675,5.59459459 C54.8367965,5.44864865 54.6900433,5.25405405 54.54329,5.05945946 C54.4454545,4.86486486 54.347619,4.57297297 54.3965368,4.28108108 C54.3965368,4.08648649 54.4454545,3.89189189 54.4943723,3.74594595 C54.54329,3.6 54.6411255,3.45405405 54.7878788,3.30810811 C54.8857143,3.16216216 55.0324675,3.06486486 55.1792208,2.96756757 C55.325974,2.87027027 55.4727273,2.77297297 55.6683983,2.72432432 C55.4727273,2.52972973 55.325974,2.33513514 55.2281385,2.14054054 C55.130303,1.94594595 55.0813853,1.7027027 55.0813853,1.45945946 C55.0813853,1.21621622 55.130303,0.972972973 55.2770563,0.778378378 C55.3748918,0.583783784 55.521645,0.437837838 55.717316,0.340540541 C55.912987,0.243243243 56.108658,0.145945946 56.304329,0.0972972973 C56.5489177,0.0486486486 56.7445887,0.0486486486 56.9891775,0.0486486486 C57.2337662,0.0486486486 57.4294372,0.0972972973 57.674026,0.145945946 C57.869697,0.194594595 58.065368,0.291891892 58.261039,0.437837838 C58.4077922,0.583783784 58.5545455,0.72972973 58.652381,0.924324324 C58.7502165,1.11891892 58.7991342,1.31351351 58.7991342,1.60540541 C58.7991342,1.8 58.7502165,1.94594595 58.7012987,2.09189189 C58.652381,2.23783784 58.5545455,2.38378378 58.45671,2.48108108 C58.3588745,2.57837838 58.2121212,2.72432432 58.065368,2.82162162 C57.9186147,2.91891892 57.7718615,3.01621622 57.5761905,3.06486486 C57.8207792,3.30810811 58.065368,3.55135135 58.3099567,3.84324324 C58.5056277,3.55135135 58.7012987,3.25945946 58.9458874,2.96756757 C59.4350649,2.96756757 59.9731602,3.01621622 60.4623377,3.01621622 C60.0220779,3.55135135 59.5818182,4.08648649 59.1415584,4.62162162 C59.6307359,5.10810811 60.0709957,5.59459459 60.5601732,6.08108108 C59.8753247,6.03243243 59.2883117,6.03243243 58.7502165,5.98378378 Z M56.4021645,3.55135135 C56.2554113,3.6 56.108658,3.6972973 55.9619048,3.79459459 C55.8151515,3.89189189 55.7662338,4.08648649 55.7662338,4.28108108 C55.7662338,4.37837838 55.7662338,4.47567568 55.8151515,4.57297297 C55.8640693,4.67027027 55.912987,4.71891892 56.0108225,4.81621622 C56.108658,4.86486486 56.1575758,4.91351351 56.2554113,4.96216216 C56.3532468,5.01081081 56.4510823,5.01081081 56.5489177,5.01081081 C56.7445887,5.01081081 56.891342,4.96216216 57.0380952,4.91351351 C57.1848485,4.86486486 57.3316017,4.71891892 57.4294372,4.62162162 C57.087013,4.23243243 56.7445887,3.89189189 56.4021645,3.55135135 Z M57.478355,1.60540541 C57.478355,1.45945946 57.4294372,1.31351351 57.3316017,1.21621622 C57.2337662,1.11891892 57.087013,1.07027027 56.9402597,1.07027027 C56.7935065,1.07027027 56.6467532,1.11891892 56.5489177,1.21621622 C56.4510823,1.31351351 56.4021645,1.45945946 56.3532468,1.60540541 C56.3532468,1.75135135 56.4021645,1.84864865 56.4510823,1.99459459 C56.5,2.14054054 56.6467532,2.23783784 56.7935065,2.33513514 C56.9891775,2.28648649 57.1359307,2.18918919 57.282684,2.04324324 C57.4294372,1.8972973 57.478355,1.75135135 57.478355,1.60540541 Z" id="Shape"></path>
                        <path d="M63.9354978,6.17837838 C64.0333333,4.28108108 64.0822511,2.38378378 64.1800866,0.437837838 C65.5008658,0.486486486 66.8705628,0.583783784 68.191342,0.632432432 C68.191342,1.02162162 68.1424242,1.41081081 68.1424242,1.8 C67.2619048,1.75135135 66.3813853,1.7027027 65.5008658,1.65405405 C65.5008658,1.99459459 65.4519481,2.38378378 65.4519481,2.72432432 C66.2835498,2.77297297 67.1151515,2.82162162 67.8978355,2.87027027 C67.8978355,3.25945946 67.8489177,3.6 67.8489177,3.98918919 C67.017316,3.94054054 66.1857143,3.89189189 65.4030303,3.84324324 C65.4030303,4.23243243 65.3541126,4.62162162 65.3541126,5.01081081 C66.2835498,5.05945946 67.1640693,5.10810811 68.0935065,5.15675676 C68.0935065,5.54594595 68.0445887,5.93513514 68.0445887,6.32432432 C66.6748918,6.32432432 65.3051948,6.22702703 63.9354978,6.17837838 Z" id="Shape"></path>
                        <path d="M72.3493506,6.66486486 C71.8601732,6.61621622 71.4199134,6.61621622 70.9307359,6.56756757 C70.2948052,4.62162162 69.6588745,2.67567568 69.0229437,0.72972973 C69.561039,0.778378378 70.0991342,0.778378378 70.6372294,0.827027027 C71.0285714,2.18918919 71.3709957,3.6 71.7623377,4.96216216 C71.7623377,4.96216216 71.7623377,4.96216216 71.8112554,4.96216216 C72.3493506,3.64864865 72.8874459,2.33513514 73.4744589,1.02162162 C74.0125541,1.07027027 74.5506494,1.11891892 75.0887446,1.11891892 C74.1103896,2.91891892 73.2298701,4.81621622 72.3493506,6.66486486 Z" id="Shape"></path>
                        <path d="M75.4800866,6.85945946 C75.6268398,4.96216216 75.7735931,3.06486486 75.9203463,1.16756757 C77.2411255,1.26486486 78.6108225,1.36216216 79.9316017,1.50810811 C79.882684,1.8972973 79.882684,2.28648649 79.8337662,2.67567568 C78.9532468,2.57837838 78.0727273,2.52972973 77.1922078,2.43243243 C77.14329,2.77297297 77.14329,3.16216216 77.0943723,3.5027027 C77.925974,3.55135135 78.7575758,3.64864865 79.5891775,3.6972973 C79.5402597,4.08648649 79.5402597,4.42702703 79.491342,4.81621622 C78.6597403,4.76756757 77.8281385,4.67027027 77.0454545,4.62162162 C76.9965368,5.01081081 76.9965368,5.4 76.947619,5.78918919 C77.8770563,5.88648649 78.7575758,5.93513514 79.687013,6.03243243 C79.6380952,6.42162162 79.6380952,6.81081081 79.5891775,7.2 C78.2194805,7.1027027 76.8497835,6.95675676 75.4800866,6.85945946 Z" id="Shape"></path>
                        <path d="M84.7255411,7.68648649 C84.0896104,6.37297297 83.4047619,5.05945946 82.7199134,3.74594595 C82.7199134,3.74594595 82.7199134,3.74594595 82.6709957,3.74594595 C82.5731602,5.01081081 82.4264069,6.22702703 82.3285714,7.49189189 C81.8883117,7.44324324 81.3991342,7.39459459 80.9588745,7.34594595 C81.1545455,5.44864865 81.3502165,3.55135135 81.4969697,1.65405405 C82.0350649,1.7027027 82.6220779,1.75135135 83.1601732,1.8 C83.8450216,3.11351351 84.5298701,4.42702703 85.1658009,5.74054054 C85.1658009,5.74054054 85.1658009,5.74054054 85.2147186,5.74054054 C85.3614719,4.52432432 85.4593074,3.25945946 85.6060606,2.04324324 C86.0952381,2.09189189 86.5354978,2.14054054 87.0246753,2.18918919 C86.8290043,4.08648649 86.5844156,5.98378378 86.3887446,7.88108108 C85.8017316,7.78378378 85.2636364,7.73513514 84.7255411,7.68648649 Z" id="Shape"></path>
                        <path d="M91.0359307,3.84324324 C90.8402597,5.35135135 90.6445887,6.85945946 90.4489177,8.36756757 C89.9597403,8.31891892 89.5194805,8.27027027 89.030303,8.22162162 C89.225974,6.71351351 89.421645,5.20540541 89.5683983,3.6972973 C88.9813853,3.64864865 88.44329,3.55135135 87.8562771,3.5027027 C87.9051948,3.11351351 87.9541126,2.72432432 88.0030303,2.33513514 C89.617316,2.52972973 91.2316017,2.72432432 92.8458874,2.91891892 C92.7969697,3.30810811 92.7480519,3.6972973 92.6991342,4.08648649 C92.161039,3.94054054 91.6229437,3.89189189 91.0359307,3.84324324 Z" id="Shape"></path>
                        <path d="M96.9549784,4.86486486 C96.8571429,4.71891892 96.7103896,4.57297297 96.5147186,4.42702703 C96.3190476,4.32972973 96.1233766,4.23243243 95.9277056,4.23243243 C95.8298701,4.23243243 95.7320346,4.23243243 95.6341991,4.23243243 C95.5363636,4.23243243 95.4385281,4.23243243 95.3406926,4.28108108 C95.2428571,4.32972973 95.1939394,4.37837838 95.0961039,4.42702703 C95.0471861,4.47567568 94.9982684,4.57297297 94.9982684,4.67027027 C94.9982684,4.76756757 94.9982684,4.86486486 95.0471861,4.91351351 C95.0961039,4.96216216 95.1450216,5.05945946 95.1939394,5.10810811 C95.2917749,5.15675676 95.3406926,5.20540541 95.4874459,5.3027027 C95.5852814,5.35135135 95.7320346,5.4 95.8298701,5.4972973 C96.0255411,5.59459459 96.2212121,5.69189189 96.4168831,5.78918919 C96.6125541,5.88648649 96.8082251,6.03243243 96.9549784,6.17837838 C97.1017316,6.32432432 97.2484848,6.51891892 97.3463203,6.71351351 C97.4441558,6.90810811 97.4441558,7.15135135 97.3952381,7.44324324 C97.3463203,7.78378378 97.2484848,8.02702703 97.1017316,8.27027027 C96.9549784,8.51351351 96.7593074,8.65945946 96.5147186,8.80540541 C96.2701299,8.95135135 96.0255411,9 95.7320346,9.04864865 C95.4385281,9.0972973 95.1450216,9.0972973 94.8515152,9.04864865 C94.4112554,9 94.0199134,8.85405405 93.6285714,8.65945946 C93.2372294,8.46486486 92.9437229,8.22162162 92.7480519,7.92972973 C93.0904762,7.68648649 93.4329004,7.39459459 93.8242424,7.15135135 C93.9220779,7.34594595 94.1177489,7.49189189 94.3623377,7.63783784 C94.6069264,7.78378378 94.8025974,7.88108108 95.0471861,7.88108108 C95.1450216,7.88108108 95.2428571,7.88108108 95.3406926,7.88108108 C95.4385281,7.88108108 95.5363636,7.83243243 95.6341991,7.83243243 C95.7320346,7.78378378 95.7809524,7.73513514 95.8298701,7.68648649 C95.8787879,7.58918919 95.9277056,7.54054054 95.9277056,7.39459459 C95.9277056,7.2972973 95.9277056,7.2 95.8787879,7.1027027 C95.8298701,7.00540541 95.7809524,6.95675676 95.6831169,6.85945946 C95.5852814,6.76216216 95.4874459,6.71351351 95.3406926,6.61621622 C95.1939394,6.56756757 95.0471861,6.47027027 94.8515152,6.37297297 C94.6558442,6.27567568 94.5090909,6.17837838 94.3134199,6.08108108 C94.1177489,5.98378378 93.9709957,5.83783784 93.8731602,5.69189189 C93.7264069,5.54594595 93.6285714,5.4 93.5796537,5.20540541 C93.5307359,5.01081081 93.4818182,4.76756757 93.5307359,4.52432432 C93.5796537,4.23243243 93.6774892,3.94054054 93.8242424,3.74594595 C93.9709957,3.55135135 94.2155844,3.35675676 94.4112554,3.25945946 C94.6558442,3.16216216 94.9004329,3.06486486 95.1939394,3.01621622 C95.4874459,2.96756757 95.7809524,2.96756757 96.0744589,3.01621622 C96.4168831,3.06486486 96.7593074,3.16216216 97.1017316,3.35675676 C97.4441558,3.5027027 97.7376623,3.74594595 97.9822511,3.98918919 C97.6398268,4.32972973 97.2974026,4.62162162 96.9549784,4.86486486 Z" id="Shape"></path>
                    </g>
                    <g id="Group" transform="translate(10.761905, 9.243243)" fill="#231F20">
                        <g id="Shape">
                            <path d="M13.25671,22.5243243 C12.8164502,22.3783784 12.3761905,22.3783784 11.9359307,22.6216216 C11.495671,22.8162162 11.3489177,23.1081081 11.3978355,23.5459459 C11.4467532,24.4216216 11.4467532,25.2486486 11.3978355,26.027027 C11.3489177,27.7297297 11.2510823,29.772973 10.712987,31.6702703 C10.4683983,32.4972973 10.1748918,33.4216216 9.63679654,34.2 C9.0987013,34.9297297 9.0008658,34.9783784 8.26709957,34.4918919 C7.04415584,33.7135135 6.11471861,32.6432432 5.28311688,31.1837838 C4.45151515,29.627027 3.96233766,28.0216216 3.61991342,26.8054054 C2.83722944,23.7405405 2.64155844,21.0162162 2.98398268,18.1459459 C3.08181818,16.6378378 3.42424242,15.3243243 4.01125541,14.1081081 C4.35367965,13.3297297 4.74502165,12.8432432 5.23419913,12.4054054 C5.52770563,12.2108108 5.72337662,12.1621622 6.01688312,12.3081081 C6.7995671,12.6 7.28874459,13.1351351 7.53333333,13.8648649 C7.63116883,14.1081081 7.68008658,14.4 7.77792208,14.6918919 C7.82683983,14.9837838 8.07142857,15.4216216 8.75627706,15.2756757 C9.0987013,15.1783784 9.63679654,15.0810811 9.68571429,14.4486486 C9.78354978,13.2810811 9.39220779,12.2594595 8.60952381,11.5783784 C7.82683983,10.8972973 6.65281385,10.6054054 5.42987013,10.8486486 C3.81558442,11.1405405 2.59264069,12.1135135 1.66320346,13.6702703 C1.02727273,14.7405405 0.635930736,15.9081081 0.44025974,17.2216216 C-0.146753247,20.5297297 -4.05231404e-15,23.8864865 0.831601732,27.0972973 C1.32077922,29.1405405 1.90779221,30.7459459 2.69047619,32.2054054 C3.52207792,33.7621622 4.54935065,34.8810811 5.82121212,35.7081081 C6.6038961,36.2432432 7.33766234,36.4864865 8.12034632,36.4864865 C8.16926407,36.4864865 8.16926407,36.4864865 8.21818182,36.4864865 C10.125974,36.4378378 11.495671,35.5621622 12.278355,33.9567568 C12.669697,33.1297297 13.0121212,32.2540541 13.25671,31.2810811 C13.452381,30.6 13.5502165,30.0648649 13.5991342,29.5297297 C13.8437229,27.6810811 13.8437229,25.5891892 13.6480519,23.2054054 C13.6480519,23.0108108 13.5012987,22.6702703 13.25671,22.5243243 Z"></path>
                            <path d="M44.1238095,16.4918919 C44.221645,16.8324324 44.4662338,17.0756757 44.7597403,17.172973 C44.8575758,17.2216216 44.9554113,17.2216216 45.0532468,17.2216216 C45.3467532,17.2216216 45.6402597,17.1243243 45.8848485,16.8810811 C46.4718615,16.4432432 46.4718615,15.5675676 46.0805195,15.0324324 C45.787013,14.6432432 45.3467532,14.5459459 44.8575758,14.7405405 C44.221645,14.9837838 43.9281385,15.8594595 44.0748918,16.3945946 L44.1238095,16.4918919 Z"></path>
                            <path d="M81.9861472,14.9837838 C81.5948052,14.6918919 80.9588745,14.6918919 80.665368,14.9351351 C78.4640693,17.172973 77.9748918,17.8054054 76.5562771,19.6540541 C76.5073593,19.7513514 76.4095238,19.8 76.3606061,19.8972973 C76.1649351,20.1405405 75.9692641,20.3837838 75.8225108,20.627027 C75.8225108,18.6324324 75.7735931,16.0540541 75.4311688,14.5945946 C75.3333333,14.2540541 75.2354978,13.8648649 75.1376623,13.5243243 C75.0398268,13.1837838 74.9419913,12.8432432 74.8441558,12.5027027 C74.5995671,11.627027 73.9636364,11.3351351 72.8874459,11.5783784 C72.4471861,11.6756757 71.9580087,12.0162162 71.7623377,12.2108108 C71.5177489,12.4054054 71.3709957,12.6486486 71.2242424,12.8918919 C71.1264069,12.9891892 71.0774892,13.0864865 70.9796537,13.2324324 C69.6588745,15.372973 68.387013,17.4648649 67.0662338,19.5567568 C66.6748918,20.1405405 66.2835498,20.772973 65.8922078,21.3567568 C65.647619,21.6972973 65.4519481,22.0378378 65.2073593,22.3783784 C65.2073593,22.3783784 65.1584416,22.427027 65.0606061,22.4756757 C65.0116883,22.1837838 65.0116883,21.9891892 65.0116883,21.7459459 C65.0116883,20.7243243 65.1095238,19.8 65.2562771,18.8756757 C65.3051948,18.5837838 65.4030303,18.3405405 65.4519481,18.0486486 C65.4519481,18 65.4519481,18 65.4519481,17.9513514 C65.647619,17.2702703 65.8922078,16.5891892 66.1857143,15.9081081 L66.234632,15.8108108 C66.430303,15.5189189 66.5770563,15.3243243 66.5281385,15.1297297 L66.4792208,14.9837838 L66.3813853,14.9351351 C65.6965368,14.6432432 65.0116883,14.7405405 64.5225108,15.3243243 C64.2290043,15.6648649 63.9844156,16.0540541 63.7887446,16.4432432 C62.9082251,18 62.4679654,19.7513514 62.4679654,21.7459459 C62.4679654,22.2324324 62.5658009,22.7189189 62.7125541,23.2054054 C62.5168831,23.8378378 62.3701299,24.4216216 62.1255411,25.0054054 C61.7341991,25.7837838 61.3428571,26.2702703 61.0004329,26.5135135 C60.8536797,26.3675676 60.6580087,26.0756757 60.4623377,25.7837838 C60.2177489,25.3459459 59.9242424,24.8594595 59.7285714,24.372973 C58.7012987,21.7945946 58.5545455,19.1189189 58.45671,16.1513514 C58.9458874,15.8594595 59.1415584,15.6162162 58.8969697,14.9837838 C58.7012987,14.6432432 58.7502165,14.3027027 58.8969697,13.7675676 C59.5818182,10.8 60.4134199,7.2972973 60.9515152,3.79459459 C61.0493506,3.21081081 61.0493506,2.67567568 61.0493506,2.04324324 C61.0493506,1.8 61.0004329,1.26486486 60.1688312,1.16756757 C59.3861472,1.07027027 58.8480519,1.36216216 58.45671,1.99459459 C58.065368,2.72432432 57.8207792,3.25945946 57.674026,3.84324324 C57.0380952,5.98378378 56.6467532,8.36756757 56.4510823,11.1405405 L56.304329,13.4756757 L56.108658,13.4756757 C54.7878788,13.5243243 53.6138528,14.0108108 52.6354978,14.9351351 C52.1463203,15.4216216 51.6082251,15.9567568 51.1679654,16.6378378 C49.9450216,18.5837838 49.3580087,20.6756757 49.4558442,22.9135135 C49.1623377,23.4972973 48.9177489,24.0324324 48.7220779,24.4216216 C48.4285714,25.0540541 47.4502165,26.7567568 47.0099567,27.2432432 C46.6675325,26.8054054 46.4229437,26.3675676 46.2761905,25.7837838 C45.982684,24.7135135 45.8848485,24.1297297 45.8359307,22.9621622 C45.8359307,22.1351351 45.8359307,21.6 45.8848485,21.0162162 C45.8848485,20.4810811 45.9337662,19.8972973 45.9337662,19.1189189 C45.9337662,18.6324324 45.2978355,18.1459459 44.7108225,18.0486486 C44.221645,17.9513514 43.830303,18.0972973 43.634632,18.5351351 C43.3411255,19.3621622 43.1943723,20.4810811 43.1454545,21.6486486 C42.8519481,22.1351351 42.5584416,22.6216216 42.2649351,23.1567568 C41.7268398,24.0810811 41.1887446,24.9567568 40.8463203,25.5405405 C40.7974026,25.6378378 40.7484848,25.7351351 40.6506494,25.8810811 C40.6017316,25.8324324 40.6017316,25.7837838 40.5528139,25.7837838 C39.6722944,24.3243243 38.4982684,22.8648649 36.8839827,21.3567568 C36.6883117,21.2108108 36.5415584,21.0162162 36.3458874,20.8702703 C36.1502165,20.6756757 36.0034632,20.5297297 35.8077922,20.3351351 C35.5632035,20.0918919 35.5142857,19.9459459 35.5142857,19.6540541 C35.5632035,19.2648649 35.5142857,18.827027 35.5142857,18.3891892 C35.5142857,17.6108108 35.3186147,16.8810811 34.9272727,16.2972973 C34.487013,15.6162162 33.9489177,15.372973 33.1662338,15.5675676 C32.3835498,15.7135135 31.94329,16.1513514 31.8454545,16.9783784 C31.8454545,17.2702703 31.8454545,17.6594595 31.8943723,17.9513514 C32.0411255,18.8756757 32.4324675,19.7027027 33.0194805,20.4324324 C33.1662338,20.5783784 33.4108225,20.8702703 33.704329,21.2108108 C34.1445887,21.6972973 34.6337662,22.3297297 35.0251082,22.7675676 C34.878355,23.0108108 34.7805195,23.2054054 34.7316017,23.4 L34.682684,23.4972973 C34.487013,23.9351351 34.2424242,24.4702703 33.9489177,25.0054054 C33.8021645,25.2972973 33.6554113,25.5891892 33.5575758,25.8324324 C33.312987,26.3675676 33.0194805,26.8540541 32.725974,27.3891892 C32.4324675,27.972973 32.0900433,28.5567568 31.747619,29.2378378 C31.747619,29.1891892 31.6987013,29.1891892 31.6987013,29.1891892 L31.3073593,28.5567568 C30.8181818,27.7297297 30.3290043,27 29.8398268,26.2216216 C29.4974026,25.6864865 29.0571429,25.2 28.6658009,24.7135135 L28.3233766,24.2756757 C28.2744589,24.227027 28.2255411,24.1297297 28.2255411,24.0810811 C28.2744589,23.8864865 28.3233766,23.7405405 28.3722944,23.5459459 C28.4701299,23.1081081 28.5190476,22.6702703 28.4701299,22.3783784 C28.5190476,22.0864865 28.5679654,21.7459459 28.5679654,21.4540541 C28.6168831,20.772973 28.6168831,19.9945946 28.2744589,19.2162162 C27.9320346,18.4864865 27.2961039,18.1945946 26.4645022,18.4378378 C25.9753247,18.5837838 25.5839827,18.8756757 25.3393939,19.3135135 C24.8502165,20.1891892 24.6545455,21.1135135 24.8991342,21.9891892 C25.1437229,22.8162162 25.3883117,23.5459459 25.7307359,24.372973 C25.8285714,24.6162162 26.0731602,25.0054054 26.2688312,25.3459459 C26.1709957,25.6378378 26.1220779,25.8810811 26.0242424,26.172973 C25.8774892,26.6594595 25.7307359,27.1459459 25.5839827,27.5837838 C25.3393939,28.3135135 24.7034632,29.772973 24.2142857,30.4054054 C24.0675325,30.2594595 23.8718615,30.1135135 23.8229437,30.0162162 C23.187013,29.3351351 22.8445887,28.4108108 22.5021645,27.5351351 C21.8662338,25.8810811 21.8662338,25.1027027 21.817316,23.7405405 C21.817316,23.4 21.817316,22.9621622 21.7683983,22.5243243 C21.7194805,21.5027027 21.7683983,21.0162162 21.817316,20.4810811 C21.817316,20.2378378 21.8662338,19.9945946 21.8662338,19.7027027 C21.9151515,19.2162162 21.817316,18.8756757 21.5238095,18.6324324 C21.3770563,18.5351351 20.9857143,18.3405405 20.447619,18.6324324 C20.0073593,18.827027 19.8606061,19.2162162 19.7627706,19.5081081 L19.7627706,19.8 C19.7627706,20.0918919 19.7138528,20.5297297 19.6649351,20.8216216 C19.0290043,20.5783784 18.3441558,20.5783784 17.5614719,20.9189189 C16.9744589,21.2108108 16.6320346,21.3567568 16.1428571,21.7945946 C15.5069264,22.427027 14.8709957,23.3513514 14.5774892,24.227027 C13.8926407,25.9297297 13.5991342,27.7297297 13.6969697,29.5297297 C13.6969697,30.6972973 13.9415584,31.572973 14.3818182,32.3513514 C14.7242424,32.9351351 15.2134199,33.2756757 15.8982684,33.3243243 C15.9471861,33.3243243 16.0450216,33.3243243 16.0939394,33.3243243 C17.1212121,33.3243243 17.9528139,32.8864865 18.4909091,32.0108108 C18.8333333,31.4756757 19.0779221,30.9405405 19.2246753,30.4540541 C19.3714286,29.9675676 19.5181818,29.4810811 19.6649351,28.9945946 C19.8116883,28.5081081 19.9584416,27.972973 20.1541126,27.4864865 C20.5454545,28.5567568 21.2792208,30.2594595 22.208658,30.9405405 C22.8935065,31.5243243 23.6272727,31.7189189 24.4099567,31.5243243 C25.2415584,31.3297297 25.8774892,30.6972973 26.3177489,29.772973 C26.6601732,28.9459459 27.0025974,28.0702703 27.3939394,27 C28.3233766,28.6054054 29.0571429,30.1621622 29.6441558,31.7189189 C29.7909091,32.2054054 29.7909091,32.5945946 29.5463203,33.0810811 C28.6168831,35.0756757 28.1766234,36.827027 28.1277056,38.5297297 C28.1277056,39.4054054 28.2255411,40.572973 28.9103896,41.2054054 C29.2038961,41.4486486 29.5463203,41.5945946 29.9865801,41.5945946 C30.0354978,41.5945946 30.1333333,41.5945946 30.1822511,41.5945946 C31.0627706,41.4972973 31.7965368,41.0594595 32.2367965,40.2810811 C32.8238095,39.3567568 33.2151515,38.2864865 33.3619048,37.2162162 C33.6554113,35.5621622 33.4597403,33.8594595 32.7748918,31.7189189 C32.5792208,31.1351351 32.6281385,30.6972973 32.9705628,30.1621622 C34.291342,28.0702703 35.5142857,25.8324324 36.2480519,24.1297297 C37.3242424,25.5891892 38.1558442,27 38.8896104,28.4594595 C38.6939394,28.7513514 38.5471861,29.0918919 38.4004329,29.3837838 L38.2047619,29.772973 C37.4709957,31.2324324 36.6883117,33.0324324 36.5415584,35.027027 C36.3948052,36.6324324 36.5904762,37.8486486 37.0796537,38.9675676 C37.8623377,40.572973 39.4277056,41.1567568 41.0909091,40.427027 C42.5584416,39.8432432 43.5367965,38.6756757 43.7813853,37.1189189 C44.0748918,35.7081081 43.8792208,34.3945946 43.6835498,33.1297297 C43.24329,31.0864865 42.4116883,29.2378378 41.7268398,27.827027 C41.5800866,27.5351351 41.5800866,27.2918919 41.7757576,27 C42.2160173,26.2702703 42.6562771,25.3459459 43.1454545,24.3243243 C43.1454545,24.4216216 43.1454545,24.5189189 43.1943723,24.5675676 C43.3411255,25.6378378 43.7324675,26.7081081 44.3683983,27.5837838 C44.8575758,28.3135135 45.4935065,28.6540541 46.2761905,28.6540541 C46.6186147,28.6540541 46.961039,28.6054054 47.3034632,28.4594595 C48.1839827,28.1189189 48.7220779,27.3405405 49.0645022,26.7081081 C49.2112554,26.4648649 49.4558442,26.027027 49.7493506,25.4918919 C49.8471861,25.7837838 49.9939394,26.1243243 50.1406926,26.3675676 C50.4831169,27 51.0701299,27.3891892 51.9017316,27.4864865 C51.9995671,27.4864865 52.0974026,27.4864865 52.1952381,27.4864865 C53.2714286,27.4864865 54.1519481,27.0486486 54.738961,26.172973 C55.130303,25.4918919 55.4727273,24.7135135 55.8640693,23.8864865 C56.1575758,23.1081081 56.4021645,22.2810811 56.6467532,21.4540541 C56.6467532,21.5027027 56.695671,21.5513514 56.695671,21.6486486 C56.8424242,22.1837838 56.9402597,22.7189189 57.087013,23.2540541 C57.3805195,24.1783784 57.8207792,25.3945946 58.6034632,26.4162162 C59.3372294,27.3405405 60.1688312,27.6324324 61.1961039,27.4378378 C61.9787879,27.2918919 62.4679654,26.7567568 62.9082251,26.2216216 C63.2995671,25.7351351 63.5930736,24.8108108 63.7887446,24.1297297 C63.9354978,24.1297297 64.0822511,24.1783784 64.2290043,24.1783784 C65.2562771,24.1297297 66.0878788,23.7405405 66.6748918,23.0108108 C67.1640693,22.427027 67.6532468,21.7459459 68.0935065,21.1135135 L68.2891775,20.772973 C69.6099567,18.6810811 70.9307359,16.4918919 72.3493506,14.3513514 C72.3493506,14.3027027 72.3982684,14.2540541 72.3982684,14.2540541 C72.7406926,15.227027 73.5233766,17.8540541 73.4744589,20.7243243 C73.3766234,21.5027027 72.6917749,22.3783784 72.0558442,23.2540541 C71.5666667,23.9351351 71.0774892,24.5675676 70.8329004,25.2 C70.0012987,27.3405405 69.6099567,29.2378378 69.561039,31.0378378 C69.561039,31.7675676 69.561039,32.5459459 69.9034632,33.3243243 C70.3437229,34.2 70.9796537,34.6378378 71.8601732,34.6378378 C71.9580087,34.6378378 72.0558442,34.6378378 72.2025974,34.6378378 C73.1320346,34.4918919 73.7679654,34.0540541 74.2571429,33.372973 C74.5995671,32.9351351 74.8441558,32.4 75.1376623,31.8162162 C75.8225108,30.2594595 75.9203463,28.8972973 75.9203463,27.1945946 C75.9692641,25.4918919 75.9203463,24.7621622 75.8714286,23.9351351 C75.8714286,23.5945946 75.8225108,23.2540541 75.8225108,22.8648649 C75.9692641,22.7189189 76.1160173,22.4756757 76.3116883,22.2810811 C76.4584416,22.1351351 76.5562771,21.9891892 76.6051948,21.9405405 L77.0943723,21.4054054 C78.5619048,19.8 80.078355,18.1459459 81.6437229,16.4918919 C82.6220779,15.6162162 82.2307359,15.1297297 81.9861472,14.9837838 Z M73.5233766,25.1027027 C73.5233766,25.5891892 73.5233766,26.0756757 73.5233766,26.5135135 C73.5233766,28.7027027 73.4744589,30.3081081 72.3982684,32.7405405 C72.2025974,32.3027027 71.9580087,31.6216216 71.9580087,31.1351351 C71.9580087,28.8972973 72.1536797,28.1189189 73.0831169,26.0756757 C73.2298701,25.5891892 73.3766234,25.3459459 73.5233766,25.1027027 Z M54.1030303,16.4918919 C54.3965368,16.0540541 54.54329,15.9081081 54.8857143,15.4702703 C55.0324675,15.3243243 55.521645,14.9351351 55.717316,14.8864865 C55.8640693,14.8378378 56.0108225,14.8378378 56.1575758,14.8378378 C56.2554113,14.8378378 56.304329,14.8378378 56.3532468,14.8864865 C56.4021645,14.9837838 56.4021645,15.1783784 56.4021645,15.2756757 C56.2064935,16.0054054 56.0108225,16.7837838 55.7662338,17.6594595 L55.3748918,18.972973 C54.934632,20.4810811 54.4943723,21.9891892 54.0541126,23.4486486 C53.8584416,24.1297297 53.5160173,24.8108108 53.2714286,25.2486486 L53.2225108,25.2972973 C53.1246753,25.4918919 53.0268398,25.6864865 52.9290043,25.8324324 C52.7333333,25.5405405 52.4887446,25.1027027 52.4398268,24.8594595 C51.9017316,21.8432432 52.4398268,19.0216216 54.1030303,16.4918919 Z M41.3844156,37.3621622 C41.2865801,37.9945946 41.1398268,38.6756757 40.5528139,39.2594595 C40.3571429,39.4540541 40.2593074,39.5513514 40.1614719,39.5513514 C40.1614719,39.5513514 40.1614719,39.5513514 40.1614719,39.5513514 C40.0636364,39.5513514 39.9658009,39.4540541 39.7701299,39.2594595 C39.2320346,38.6756757 38.9385281,37.9459459 38.7917749,36.9243243 C38.4982684,35.172973 39.0852814,32.4972973 40.0636364,30.7459459 C40.1125541,30.8918919 40.1614719,30.9891892 40.2103896,31.1351351 C40.4060606,31.7189189 40.6017316,32.2540541 40.7484848,32.7891892 C41.1398268,34.0540541 41.5800866,35.6594595 41.3844156,37.3621622 Z M30.3779221,39.7945946 C30.3779221,39.7945946 30.3779221,39.7459459 30.3779221,39.7459459 C30.0844156,38.1891892 30.4268398,36.3405405 30.8670996,34.9297297 C31.3562771,36.6810811 30.7692641,38.8702703 30.3779221,39.7945946 Z M19.6649351,22.1837838 C19.4203463,24.227027 17.7571429,30.1135135 16.9255411,31.3783784 C16.7787879,31.2324324 16.6320346,30.9405405 16.5831169,30.6486486 C16.0939394,28.2648649 16.3385281,25.9783784 17.4147186,23.4486486 C17.7082251,22.7675676 18.1484848,22.2810811 18.6865801,21.8918919 C18.9800866,22.2324324 19.3225108,22.2324324 19.6649351,22.1837838 Z"></path>
                            <path d="M103.020779,13.2810811 C102.629437,13.0378378 102.189177,12.9891892 101.748918,13.1351351 C101.308658,13.2324324 101.064069,13.4756757 101.015152,13.9135135 C100.868398,14.7405405 100.672727,15.6162162 100.477056,16.3459459 C100.085714,18 99.547619,19.9459459 98.6670996,21.6972973 C98.2757576,22.4756757 97.7865801,23.3027027 97.1017316,23.9837838 C96.4168831,24.6162162 96.3190476,24.6162162 95.7320346,23.9837838 C94.7047619,22.9621622 94.0199134,21.7459459 93.4818182,20.1405405 C92.9437229,18.4378378 92.8458874,16.7837838 92.7480519,15.5189189 C92.6502165,12.3567568 92.9926407,9.63243243 93.8731602,6.90810811 C94.2645022,5.44864865 94.9004329,4.23243243 95.6831169,3.16216216 C96.1722944,2.48108108 96.6614719,2.04324324 97.2484848,1.75135135 C97.5419913,1.60540541 97.7865801,1.60540541 98.0311688,1.8 C98.7160173,2.23783784 99.1073593,2.87027027 99.2051948,3.64864865 C99.2541126,3.94054054 99.2541126,4.23243243 99.2541126,4.47567568 C99.2541126,4.76756757 99.4008658,5.25405405 100.134632,5.20540541 C100.525974,5.20540541 101.015152,5.20540541 101.210823,4.57297297 C101.504329,3.45405405 101.357576,2.38378378 100.721645,1.55675676 C100.085714,0.72972973 99.0095238,0.243243243 97.7865801,0.243243243 C96.1233766,0.194594595 94.7536797,0.875675676 93.5307359,2.23783784 C92.6991342,3.16216216 92.0632035,4.23243243 91.6229437,5.44864865 C90.4,8.56216216 89.8619048,11.8702703 90.008658,15.1783784 C90.0575758,17.2702703 90.3021645,18.972973 90.791342,20.5297297 C91.2805195,22.2324324 92.0632035,23.5459459 93.1393939,24.5675676 C93.8242424,25.2972973 94.5090909,25.6864865 95.2917749,25.8324324 C95.6341991,25.8810811 95.9766234,25.9297297 96.3190476,25.9297297 C97.7376623,25.9297297 98.8627706,25.3459459 99.74329,24.227027 C100.330303,23.4972973 100.819481,22.7189189 101.210823,21.7945946 C101.504329,21.1621622 101.748918,20.6756757 101.895671,20.1405405 C102.482684,18.3405405 102.922944,16.3459459 103.21645,13.9621622 C103.314286,13.8162162 103.265368,13.4756757 103.020779,13.2810811 Z"></path>
                            <path d="M144.698701,15.2756757 C144.845455,15.372973 145.041126,15.4216216 145.236797,15.4216216 C145.432468,15.4216216 145.677056,15.372973 145.872727,15.2756757 C146.508658,14.9837838 146.753247,14.1081081 146.508658,13.5243243 C146.312987,13.0864865 145.921645,12.8918919 145.38355,12.9405405 C144.796537,13.0378378 144.356277,13.6216216 144.258442,14.2054054 L144.209524,14.2054054 L144.209524,14.4486486 C144.258442,14.8378378 144.454113,15.1297297 144.698701,15.2756757 Z"></path>
                        </g>
                        <path d="M203.497835,28.5567568 C203.057576,28.2648649 202.225974,28.3621622 201.736797,28.7027027 C201.149784,29.1405405 201.100866,28.9945946 200.513853,29.4810811 C199.584416,30.3567568 198.508225,31.0864865 197.872294,31.572973 C197.774459,31.6702703 197.676623,31.7189189 197.578788,31.8162162 C197.578788,31.7675676 197.52987,31.7189189 197.52987,31.6702703 C197.187446,29.8702703 196.551515,28.0702703 195.670996,26.2216216 C195.57316,26.027027 195.475325,25.7837838 195.377489,25.5891892 C195.279654,25.3459459 195.181818,25.1027027 195.035065,24.9081081 C194.888312,24.6162162 194.888312,24.4216216 194.986147,24.1783784 C195.181818,23.8378378 195.279654,23.4 195.426407,23.0108108 C195.719913,22.2324324 195.768831,21.5027027 195.622078,20.8216216 C195.475325,20.0432432 194.986147,19.6054054 194.203463,19.5081081 C193.469697,19.3621622 192.882684,19.6540541 192.491342,20.3837838 C192.393506,20.6756757 192.246753,21.0162162 192.197835,21.3081081 C191.953247,22.1351351 192.051082,23.0594595 192.344589,24.0324324 C192.442424,24.372973 192.784848,25.2 193.078355,26.027027 C192.197835,27.0972973 190.58355,28.9945946 190.094372,29.4810811 C189.654113,29.9189189 188.62684,30.7459459 187.697403,30.7459459 C187.697403,30.7459459 187.697403,30.7459459 187.697403,30.7459459 C187.648485,30.6486486 187.648485,30.5513514 187.599567,30.4540541 C187.550649,30.2594595 187.501732,30.1135135 187.452814,29.9675676 C187.208225,28.8 187.452814,27.7297297 187.74632,26.7081081 C187.795238,26.5621622 187.893074,26.4648649 188.088745,26.4648649 C188.088745,26.4648649 188.137662,26.4648649 188.137662,26.4648649 C189.800866,26.4648649 191.121645,24.6648649 191.366234,23.4486486 C191.512987,22.9135135 191.610823,22.2810811 191.317316,21.8432432 C191.121645,21.5513514 190.828139,21.4054054 190.387879,21.3567568 C189.556277,21.2108108 188.529004,21.7945946 187.941991,22.3297297 C186.180952,23.9837838 185.15368,25.9297297 184.958009,28.2162162 C184.958009,28.2162162 184.958009,28.2162162 184.958009,28.2648649 C184.71342,28.7027027 184.419913,29.0918919 184.126407,29.5297297 C183.783983,30.0648649 183.490476,30.5027027 183.245887,30.9405405 C182.169697,32.5945946 181.631602,33.5189189 180.702165,34.1513514 C180.310823,34.3459459 180.164069,34.2972973 180.017316,34.1027027 C179.72381,33.6648649 179.528139,33.2756757 179.381385,32.8864865 C179.038961,31.7189189 178.941126,30.4054054 178.990043,28.8 C179.087879,26.0756757 179.72381,23.4486486 180.261905,21.5027027 C180.848918,19.2648649 181.729437,16.8810811 182.903463,14.2540541 C184.419913,14.0594595 186.034199,13.8648649 187.990909,13.6702703 C190.58355,13.427027 193.17619,13.572973 195.57316,14.1567568 C197.676623,14.6918919 199.241991,15.372973 200.122511,17.0756757 C200.464935,17.7567568 201.100866,17.7567568 201.541126,17.6594595 L201.590043,17.6594595 C201.785714,17.6108108 201.981385,17.5621622 202.079221,17.4648649 L202.128139,17.4162162 L202.128139,17.3189189 C202.177056,16.6864865 201.149784,15.4216216 200.318182,14.8864865 C199.241991,14.1081081 198.019048,13.572973 196.45368,13.1837838 C193.61645,12.4054054 190.58355,12.1621622 187.452814,12.4054054 C186.180952,12.5027027 184.860173,12.6486486 183.490476,12.7945946 L183.8329,12.0648649 C184.077489,11.5783784 184.27316,11.0432432 184.517749,10.5567568 C184.566667,10.5081081 184.566667,10.4108108 184.615584,10.3621622 C184.811255,10.0216216 184.909091,9.82702703 184.860173,9.63243243 L184.811255,9.53513514 L184.762338,9.48648649 C183.979654,8.95135135 183.001299,8.95135135 182.414286,9.58378378 C182.071861,9.97297297 181.680519,10.4594595 181.435931,10.9459459 L181.289177,11.1891892 C180.897835,11.8702703 180.506494,12.5513514 180.164069,13.2324324 C180.066234,13.2324324 179.968398,13.2810811 179.870563,13.2810811 C179.625974,13.3297297 179.430303,13.3297297 179.234632,13.3783784 L178.500866,13.4756757 C177.033333,13.6702703 175.614719,13.8648649 174.147186,13.7675676 C173.560173,13.7675676 173.070996,13.6702703 172.581818,13.4756757 C172.337229,13.3783784 172.190476,13.2324324 172.141558,13.0864865 C172.092641,12.9405405 172.092641,12.7459459 172.239394,12.5513514 C172.435065,12.1621622 172.777489,11.8702703 173.022078,11.627027 C173.070996,11.5783784 173.168831,11.5297297 173.217749,11.5297297 C173.41342,11.4324324 173.560173,11.3351351 173.609091,11.1891892 L173.609091,11.0432432 L173.511255,10.9459459 L173.462338,10.8972973 C172.924242,10.5567568 172.288312,10.5567568 171.750216,10.8 C171.407792,10.9459459 171.358874,10.9945946 171.065368,11.1891892 C170.429437,11.6756757 170.135931,12.3567568 170.233766,12.9891892 C170.331602,13.6216216 170.771861,14.1567568 171.603463,14.4972973 C172.581818,14.8378378 173.609091,14.9351351 174.48961,14.9837838 C175.516883,15.0810811 176.544156,15.0324324 177.7671,14.9351351 C177.913853,14.9351351 178.060606,14.8864865 178.305195,14.8378378 C178.647619,14.7891892 179.038961,14.7405405 179.430303,14.6918919 C177.962771,17.8540541 176.935498,20.9675676 176.299567,24.2756757 C176.250649,24.6648649 176.201732,25.0054054 176.103896,25.3945946 C176.054978,25.4432432 176.054978,25.4918919 176.006061,25.5405405 C175.712554,25.9297297 175.419048,26.3675676 175.125541,26.7081081 C174.636364,27.2918919 173.560173,28.4594595 172.875325,28.8972973 C172.777489,28.7513514 172.679654,28.5081081 172.630736,28.4108108 C172.239394,27.5351351 172.239394,26.5621622 172.239394,25.6378378 C172.190476,23.8864865 172.435065,23.1567568 172.875325,21.8432432 C172.97316,21.5027027 173.119913,21.1135135 173.266667,20.6756757 C173.609091,19.7027027 173.755844,19.2648649 174.000433,18.7783784 C174.098268,18.5837838 174.196104,18.3405405 174.293939,18.0972973 C174.48961,17.6594595 174.538528,17.2702703 174.342857,16.9783784 C174.245022,16.8324324 173.951515,16.5405405 173.315584,16.6378378 C172.826407,16.6864865 172.581818,16.9783784 172.386147,17.2216216 L172.239394,17.5135135 C172.141558,17.8054054 171.945887,18.1459459 171.799134,18.4378378 C171.261039,17.9513514 170.625108,17.7567568 169.793506,17.8540541 C169.157576,17.9027027 168.766234,17.9513514 168.130303,18.1945946 C167.347619,18.5351351 166.418182,19.2162162 165.831169,19.9459459 C164.608225,21.3081081 163.727706,22.9135135 163.18961,24.6648649 C163.140693,24.8594595 163.091775,25.0540541 162.993939,25.2486486 C161.966667,26.6108108 160.841558,27.9243243 159.814286,28.8 C159.569697,29.0918919 159.031602,29.4324324 158.591342,29.5297297 C158.248918,29.0432432 158.248918,28.7027027 158.248918,28.2162162 C158.346753,27.0972973 159.129437,25.3459459 159.422944,24.8108108 C159.667532,24.227027 160.058874,23.5459459 160.450216,22.8648649 C161.135065,21.5513514 161.868831,20.1891892 162.162338,19.2648649 C162.309091,18.7297297 162.260173,18.2432432 162.015584,17.8540541 C161.770996,17.4648649 161.330736,17.2216216 160.743723,17.1243243 C159.814286,16.9297297 158.933766,17.027027 157.857576,17.5135135 C156.24329,18.2432432 154.72684,19.3621622 153.259307,20.9675676 C152.672294,21.6486486 151.547186,23.1081081 149.688312,26.1243243 C149.688312,26.027027 149.688312,25.9783784 149.737229,25.8810811 L149.737229,25.6864865 C150.128571,24.0810811 150.37316,23.4972973 151.058009,22.0378378 C151.449351,21.2108108 151.88961,20.3351351 152.32987,19.5567568 C152.721212,18.827027 153.063636,18.0972973 153.454978,17.4162162 C153.699567,16.9783784 153.84632,16.5405405 153.944156,15.9567568 C154.090909,15.1783784 153.748485,14.5945946 152.965801,14.3027027 C152.623377,14.2054054 152.134199,14.0108108 151.742857,14.0108108 C151.742857,14.0108108 151.742857,14.0108108 151.742857,14.0108108 C150.568831,13.9621622 149.9329,14.1567568 149.003463,14.6918919 C148.905628,14.7405405 148.709957,14.8864865 148.709957,15.1297297 C148.709957,15.227027 148.758874,15.372973 148.807792,15.4216216 C149.199134,15.9567568 150.37316,15.4702703 150.37316,15.4702703 L150.568831,15.4216216 C150.715584,15.372973 150.81342,15.3243243 151.204762,15.3243243 C151.302597,15.4702703 151.009091,16.2972973 150.470996,17.172973 C150.079654,17.9513514 149.688312,18.7297297 149.29697,19.4594595 C148.905628,20.1891892 148.514286,20.9189189 148.122944,21.6972973 C148.074026,21.8432432 148.025108,21.9891892 147.927273,22.0864865 C147.487013,22.6216216 147.095671,23.1081081 146.802165,23.4486486 C146.361905,23.9837838 145.041126,25.4432432 144.50303,25.8324324 C144.258442,25.3459459 144.160606,24.8594595 144.111688,24.227027 C144.062771,23.1081081 144.111688,22.5243243 144.356277,21.4054054 C144.551948,20.627027 144.698701,20.0432432 144.845455,19.5081081 C144.992208,18.972973 145.138961,18.4378378 145.285714,17.7081081 C145.432468,17.2216216 144.894372,16.6378378 144.356277,16.3945946 C143.916017,16.2 143.475758,16.2486486 143.231169,16.6378378 C142.399567,18 141.665801,20.4324324 141.47013,22.6216216 C141.127706,23.4 140.736364,24.1783784 140.296104,24.9081081 C139.758009,25.5891892 139.268831,26.027027 138.926407,26.2216216 C138.730736,25.9783784 138.6329,25.6378378 138.535065,25.3945946 C138.339394,24.9081081 138.192641,24.372973 138.045887,23.8378378 C137.507792,21.1135135 137.850216,18.4378378 138.290476,15.5189189 C138.828571,15.2756757 139.07316,15.1297297 138.926407,14.4486486 C138.779654,14.1081081 138.877489,13.7189189 139.122078,13.2810811 C140.345022,10.4594595 141.763636,7.15135135 142.937662,3.84324324 C143.133333,3.30810811 143.231169,2.72432432 143.329004,2.18918919 L143.329004,2.14054054 C143.377922,1.8972973 143.42684,1.36216216 142.595238,1.11891892 C141.861472,0.875675676 141.225541,1.07027027 140.785281,1.60540541 C140.393939,2.04324324 140.002597,2.62702703 139.660173,3.30810811 C138.6329,5.3027027 137.801299,7.58918919 137.11645,10.2648649 L136.578355,12.5513514 L136.382684,12.5513514 C135.061905,12.3567568 133.838961,12.6486486 132.713853,13.3783784 C132.12684,13.7675676 131.490909,14.2054054 131.001732,14.7891892 C129.338528,16.5891892 128.409091,18.6810811 128.115584,21.0648649 C127.626407,21.8432432 127.186147,22.6216216 126.794805,23.3027027 C126.25671,24.2756757 125.620779,25.2486486 124.984848,26.172973 C124.642424,26.7081081 124.251082,27.2918919 123.908658,27.827027 C123.761905,28.0216216 123.615152,28.2648649 123.419481,28.4594595 C123.370563,28.1189189 123.370563,27.6324324 123.370563,27.3405405 C123.517316,26.0756757 123.85974,24.8108108 124.348918,23.6432432 C124.642424,22.8648649 124.838095,22.427027 125.033766,21.9891892 C125.229437,21.5513514 125.425108,21.0648649 125.767532,20.2378378 C125.963203,19.7513514 126.061039,19.1675676 126.158874,18.6810811 C126.25671,17.9513514 125.914286,17.3675676 125.278355,16.9297297 C125.033766,16.7837838 124.789177,16.6864865 124.544589,16.5891892 C124.446753,16.5405405 124.348918,16.4918919 124.251082,16.4918919 C123.957576,16.3459459 123.664069,16.2 123.419481,16.0540541 C122.78355,15.5675676 122.636797,15.1297297 122.78355,14.6918919 C122.979221,14.3027027 122.979221,13.9621622 122.979221,13.6216216 C122.979221,13.3783784 122.832468,13.0378378 122.636797,12.8918919 C122.392208,12.7459459 122.098701,12.6972973 121.756277,12.7459459 C121.316017,12.8432432 120.875758,13.1351351 120.680087,13.5243243 C120.484416,13.9621622 120.337662,14.8864865 120.337662,15.4216216 L120.337662,15.5189189 C120.38658,15.9081081 120.484416,16.2972973 120.729004,16.6378378 C120.141991,16.7351351 119.359307,16.7351351 118.967965,16.2486486 C118.478788,15.6648649 118.185281,14.9837838 118.038528,14.2540541 C117.98961,13.5243243 117.696104,13.3783784 117.109091,13.3297297 C116.424242,13.2810811 116.081818,13.427027 115.886147,14.0108108 C114.51645,14.3027027 113.929437,14.5945946 113.146753,15.9081081 C113.097835,15.9567568 113.097835,16.0054054 113.097835,16.0540541 C112.021645,16.2972973 111.287879,16.1027027 110.60303,15.4216216 C110.505195,15.3243243 110.407359,15.1783784 110.309524,15.0810811 C110.113853,14.8864865 109.9671,14.6432432 109.820346,14.4486486 C109.624675,14.0108108 109.477922,13.7189189 109.282251,13.3297297 C109.233333,13.1837838 109.135498,13.0378378 109.08658,12.8432432 C108.988745,12.6 108.841991,12.3081081 108.793074,12.1135135 C108.499567,11.3351351 107.912554,11.2378378 107.374459,11.1891892 C106.738528,11.1891892 106.102597,11.4324324 105.564502,11.8702703 C101.895671,15.0810811 102.189177,21.6 103.558874,25.2486486 C103.803463,25.8810811 104.243723,26.7567568 104.977489,27.3891892 C105.564502,27.8756757 106.298268,28.1675676 107.032035,28.1675676 C107.227706,28.1675676 107.472294,28.1675676 107.667965,28.1189189 C108.597403,27.9243243 109.380087,27.2918919 109.771429,26.4648649 C109.9671,26.1243243 110.064935,25.7351351 110.162771,25.3945946 C110.211688,25.2972973 110.211688,25.2 110.260606,25.0540541 C110.651948,23.0108108 110.60303,20.9675676 110.456277,19.0702703 C110.407359,18.6810811 110.309524,18.1945946 110.211688,17.7081081 C110.162771,17.5135135 110.113853,17.2702703 110.113853,17.0756757 C110.700866,17.5135135 111.434632,17.8540541 112.461905,17.7567568 C112.168398,18.9243243 111.92381,20.4324324 112.070563,21.6 C112.119481,22.3783784 112.266234,23.4972973 112.804329,24.2756757 C113.048918,24.7621622 113.44026,25.2 113.880519,25.5891892 C114.565368,26.0756757 115.299134,26.2702703 116.0329,26.0756757 C116.766667,25.8810811 117.35368,25.3459459 117.647186,24.6162162 C117.696104,24.4702703 117.745022,24.372973 117.793939,24.227027 C117.842857,24.1297297 117.842857,23.9837838 117.940693,23.8378378 C118.332035,22.427027 118.478788,20.9189189 118.42987,19.0216216 C118.42987,18.7783784 118.42987,18.5837838 118.42987,18.3405405 C118.42987,18.1945946 118.42987,18.0972973 118.42987,17.9513514 C119.114719,18.2918919 119.94632,18.3891892 120.875758,18.1945946 C121.609524,18.0486486 122.196537,17.7567568 122.538961,17.5621622 L122.636797,17.5135135 C122.78355,17.5135135 122.881385,17.5621622 123.028139,17.6108108 C123.615152,17.8540541 123.712987,18.0972973 123.566234,18.6324324 C123.566234,18.972973 123.125974,19.9459459 122.979221,20.3351351 C122.832468,20.627027 122.734632,20.9675676 122.587879,21.2594595 C121.90303,22.7675676 121.218182,24.3243243 120.973593,25.9783784 C120.82684,26.8540541 120.777922,27.7783784 120.973593,28.7513514 C121.218182,29.772973 121.951948,30.3081081 123.028139,30.3081081 C123.077056,30.3081081 123.174892,30.3081081 123.22381,30.3081081 C123.85974,30.3081081 124.446753,30.0162162 124.887013,29.5297297 C125.278355,29.0918919 125.718615,28.4108108 126.158874,27.7783784 C126.305628,27.5351351 126.452381,27.3405405 126.599134,27.1459459 L127.528571,25.5891892 C127.822078,25.1027027 128.066667,24.6648649 128.360173,24.227027 C128.360173,24.2756757 128.409091,24.3243243 128.409091,24.372973 C128.604762,25.0540541 129.142857,25.5891892 129.925541,25.7837838 C131.148485,26.0756757 132.175758,25.8324324 132.958442,25.0540541 C133.447619,24.4702703 133.985714,23.7891892 134.474892,23.0108108 C134.915152,22.2810811 135.257576,21.5513514 135.697835,20.7243243 C135.697835,20.772973 135.697835,20.8702703 135.697835,20.9189189 C135.746753,21.5027027 135.746753,21.9891892 135.795671,22.572973 C135.893506,23.5459459 136.138095,24.8108108 136.725108,25.9297297 C137.214286,26.9027027 137.99697,27.3891892 138.975325,27.3891892 C139.024242,27.3891892 139.07316,27.3891892 139.122078,27.3891892 C139.904762,27.4378378 140.491775,26.9513514 141.02987,26.5135135 C141.323377,26.2702703 141.567965,25.8810811 141.812554,25.4432432 C141.861472,25.5891892 141.91039,25.7351351 141.959307,25.8810811 C142.350649,26.9027027 143.133333,27.4378378 144.209524,27.4378378 C144.356277,27.4378378 144.50303,27.4378378 144.649784,27.3891892 C145.628139,27.2432432 146.264069,26.6108108 146.802165,26.0756757 C146.655411,27 146.557576,27.9243243 146.557576,28.8486486 C146.557576,29.3351351 146.606494,29.8702703 146.655411,30.4054054 L146.704329,30.8432432 C146.753247,31.2324324 146.997835,31.7189189 147.731602,31.8648649 C147.927273,31.9621622 148.171861,31.9621622 148.367532,31.9621622 C148.85671,31.9621622 149.29697,31.7189189 149.541558,31.1837838 C149.737229,30.7945946 149.9329,30.4054054 150.079654,30.0162162 C150.275325,29.5783784 150.470996,29.1891892 150.666667,28.7513514 C152.036364,25.7837838 153.601732,23.4 155.509524,21.4540541 C156.585714,20.2864865 157.75974,19.4108108 159.031602,18.827027 C159.178355,18.7783784 159.374026,18.6810811 159.569697,18.5837838 C159.374026,19.0216216 158.982684,19.7513514 158.2,21.1135135 C158.004329,21.5027027 157.808658,21.8918919 157.612987,22.2324324 C157.025974,23.4 156.487879,24.4216216 156.096537,25.8810811 C155.851948,26.8054054 155.607359,27.8756757 155.80303,28.9459459 C155.998701,30.0648649 156.732468,30.8432432 157.808658,30.9405405 C158.591342,31.0864865 159.667532,30.8432432 160.352381,30.4054054 C160.890476,30.0162162 162.064502,28.8486486 162.896104,27.9243243 C163.042857,28.4594595 163.385281,28.8486486 163.923377,29.0918919 C164.950649,29.5297297 165.977922,29.4324324 166.760606,28.7513514 C167.249784,28.3621622 167.641126,27.9243243 167.98355,27.5351351 C168.277056,27.1459459 168.619481,26.7567568 168.912987,26.3189189 C169.206494,25.9297297 169.548918,25.4918919 169.891342,25.0540541 C169.891342,26.2216216 170.038095,28.0216216 170.625108,28.9945946 C171.065368,29.7243243 171.701299,30.2108108 172.483983,30.3081081 C172.581818,30.3081081 172.679654,30.3081081 172.777489,30.3081081 C173.511255,30.3081081 174.245022,29.9675676 174.880952,29.2864865 C175.174459,28.9945946 175.419048,28.7027027 175.712554,28.3621622 C175.663636,29.4810811 175.761472,30.4540541 175.908225,31.427027 C176.006061,32.4486486 176.299567,33.3243243 176.788745,34.1027027 C177.424675,35.172973 178.40303,35.7081081 179.577056,35.7567568 C179.674892,35.7567568 179.772727,35.7567568 179.870563,35.7567568 C181.142424,35.7567568 181.974026,35.2216216 183.148052,33.8108108 C183.783983,33.1297297 184.468831,32.0594595 185.251515,30.7945946 C185.545022,31.3297297 185.985281,31.7189189 186.523377,31.9135135 C187.012554,32.1081081 187.501732,32.1567568 187.941991,32.1567568 C188.724675,32.1567568 189.409524,31.9135135 190.094372,31.427027 C191.219481,30.6 192.491342,29.0918919 193.567532,27.7297297 C193.61645,27.8756757 193.665368,27.972973 193.665368,28.0216216 C194.301299,30.0648649 194.692641,31.9621622 194.888312,33.9081081 C194.594805,34.1513514 194.350216,34.3945946 194.05671,34.5891892 L193.714286,34.8810811 C192.491342,36 191.121645,37.4108108 190.241126,39.2108108 C189.556277,40.6702703 189.262771,41.8378378 189.311688,43.0540541 C189.409524,44.7567568 190.58355,45.8756757 192.344589,45.8756757 C192.393506,45.8756757 192.442424,45.8756757 192.491342,45.8756757 C194.105628,45.8756757 195.426407,45.1459459 196.209091,43.7837838 C197.040693,42.4702703 197.334199,41.1081081 197.480952,40.0378378 C197.823377,38.0432432 197.725541,35.9513514 197.578788,34.3945946 C197.52987,34.0054054 197.627706,33.8594595 197.921212,33.6162162 C198.361472,33.2756757 198.948485,32.7891892 199.584416,32.3027027 C201.100866,31.0864865 201.687879,30.8432432 202.715152,30.0648649 C202.812987,29.9675676 202.95974,29.8702703 203.057576,29.772973 C203.155411,29.6756757 203.253247,29.5783784 203.351082,29.5297297 L203.448918,29.4810811 L203.448918,29.3837838 C203.84026,28.8972973 203.742424,28.6540541 203.497835,28.5567568 Z M188.62684,23.8378378 C188.871429,23.5459459 189.605195,22.7675676 189.800866,22.7675676 C190.14329,22.6702703 189.556277,23.6432432 189.458442,23.7891892 C188.724675,24.8108108 187.844156,25.0540541 187.844156,25.1027027 C188.137662,24.5189189 188.382251,24.1297297 188.62684,23.8378378 Z M108.793074,24.1783784 C108.548485,25.2972973 108.206061,25.9783784 107.765801,26.0756757 C107.178788,25.9783784 106.640693,25.2972973 106.200433,24.1783784 C105.124242,21.3567568 105.026407,16.0540541 107.57013,13.0864865 C108.597403,14.3027027 109.477922,20.5783784 108.793074,24.1783784 Z M116.766667,21.0648649 C116.668831,22.2324324 116.277489,23.5459459 115.788312,24.0810811 C115.641558,23.9351351 115.592641,23.6918919 115.494805,23.4972973 L115.445887,23.3513514 C114.95671,22.0378378 114.858874,20.5297297 115.152381,18.7297297 C115.201299,18.1945946 115.348052,17.6594595 115.543723,17.027027 C115.788312,16.2486486 116.081818,15.6648649 116.570996,15.227027 C116.864502,16.2972973 116.864502,20.0432432 116.766667,21.0648649 Z M136.480519,14.0594595 C136.187013,14.7405405 135.844589,15.4702703 135.404329,16.2972973 L134.768398,17.5621622 C134.08355,18.9243243 133.398701,20.3351351 132.664935,21.6972973 C132.322511,22.3297297 131.882251,22.9135135 131.588745,23.3513514 L131.539827,23.4 C131.441991,23.5459459 131.295238,23.7405405 131.148485,23.8864865 C131.001732,23.5945946 130.854978,23.1081081 130.854978,22.8162162 C130.854978,19.7513514 131.931169,17.0756757 133.985714,14.8864865 C134.377056,14.4972973 134.52381,14.4 134.915152,14.0594595 C135.110823,13.9135135 135.648918,13.6702703 135.795671,13.6216216 C135.844589,13.6216216 135.893506,13.6216216 135.942424,13.6216216 C136.187013,13.6216216 136.333766,13.6702703 136.431602,13.7189189 C136.529437,13.7675676 136.480519,13.9621622 136.480519,14.0594595 Z M165.488745,27.2432432 C165.390909,27.0486486 165.390909,26.7081081 165.439827,26.4162162 C165.782251,23.9837838 166.809524,21.9405405 168.668398,19.9459459 C169.206494,19.4108108 169.744589,19.0702703 170.380519,18.9243243 C170.57619,19.3135135 170.918615,19.4108108 171.212121,19.4594595 C170.282684,21.3567568 166.711688,26.3189189 165.488745,27.2432432 Z M195.181818,36.5837838 C195.181818,37.1675676 195.1329,37.7513514 195.1329,38.2864865 C195.035065,39.6 194.839394,41.2540541 194.05671,42.7621622 C193.763203,43.2972973 193.322944,43.9297297 192.589177,44.2216216 C192.344589,44.3189189 192.197835,44.3675676 192.1,44.3675676 C192.002165,44.3189189 191.953247,44.2216216 191.855411,43.9783784 C191.512987,43.1027027 191.610823,42.2756757 191.757576,41.4486486 C192.148918,39.6486486 193.61645,37.4108108 195.181818,36.0972973 C195.181818,36.2918919 195.181818,36.4378378 195.181818,36.5837838 Z" id="Shape"></path>
                    </g>
                </g>
            </g>
        </g>
    </g>
</svg>