<?xml version="1.0" encoding="UTF-8"?>
<svg width="17px" height="17px" viewBox="0 0 17 17" version="1.1" xmlns="http://www.w3.org/2000/svg" xmlns:xlink="http://www.w3.org/1999/xlink">
    <title>Cassidy Coordinates Facebook</title>
    <desc>Cassidy Coordinates facebook page</desc>
    <g id="Page-1" stroke="none" stroke-width="1" fill="none" fill-rule="evenodd">
        <g id="pink-theme-copy" transform="translate(-1222.000000, -68.000000)" fill="#231F20">
            <g id="NAV-2" transform="translate(859.000000, 68.000000)">
                <path d="M380,17.006156 C380,17.554805 379.57999,18 379.061807,18 L374.729727,18 L374.729727,11.0293637 L376.939528,11.0293637 L377.270627,8.31308564 L374.729727,8.31308564 L374.729727,6.57839399 C374.729727,5.79194814 374.936259,5.25604707 376.001335,5.25604707 L377.360001,5.25555677 L377.360001,2.8256156 C377.124758,2.79276531 376.318542,2.71872957 375.380349,2.71872957 C373.421536,2.71872957 372.080466,3.98469165 372.080466,6.309708 L372.080466,8.31308564 L369.865109,8.31308564 L369.865109,11.0293637 L372.080466,11.0293637 L372.080466,18 L363.938193,18 C363.42001,18 363,17.554805 363,17.006156 L363,0.993843975 C363,0.444704729 363.42001,0 363.938193,0 L379.061807,0 C379.57999,0 380,0.444704729 380,0.993843975 L380,17.006156" id="Facebook"></path>
            </g>
        </g>
    </g>
</svg>