<?xml version="1.0" encoding="UTF-8"?>
<svg width="17px" height="17px" viewBox="0 0 17 17" version="1.1" xmlns="http://www.w3.org/2000/svg" xmlns:xlink="http://www.w3.org/1999/xlink">
    <title>Cassidy Coordinates Instagram</title>
    <desc>CCassidy Coordinates Instagram page</desc>
    <g id="Page-1" stroke="none" stroke-width="1" fill="none" fill-rule="evenodd">
        <g id="pink-theme-copy" transform="translate(-1269.000000, -69.000000)" fill="#231F20">
            <g id="NAV-2" transform="translate(859.000000, 68.000000)">
                <path d="M424.979271,1 L412.020729,1 C410.904645,1 410,1.9023266 410,3.01609252 L410,15.9839075 C410,17.0972097 410.904645,18 412.020729,18 L424.979271,18 C426.095355,18 427,17.0972097 427,15.9839075 L427,3.01609252 C427,1.9023266 426.095355,1 424.979271,1 L424.979271,1 Z M422.218967,3.65597469 C422.218967,3.3629272 422.456837,3.12505796 422.749884,3.12505796 L424.343562,3.12505796 C424.637073,3.12505796 424.874942,3.3629272 424.874942,3.65597469 L424.874942,5.25011592 C424.874942,5.54316341 424.637073,5.78103265 424.343562,5.78103265 L422.749884,5.78103265 C422.456837,5.78103265 422.218967,5.54316341 422.218967,5.25011592 L422.218967,3.65597469 L422.218967,3.65597469 Z M418.519707,6.25816218 C420.325287,6.25816218 421.789133,7.71876279 421.789133,9.51970652 C421.789133,11.3211139 420.325287,12.7812509 418.519707,12.7812509 C416.71459,12.7812509 415.250743,11.3211139 415.250743,9.51970652 C415.250743,7.71876279 416.71459,6.25816218 418.519707,6.25816218 L418.519707,6.25816218 Z M425.406322,15.874942 C425.406322,16.1679895 425.168453,16.4063225 424.874942,16.4063225 L412.125058,16.4063225 C411.831547,16.4063225 411.593678,16.1679895 411.593678,15.874942 L411.593678,7.90609061 L413.718736,7.90609061 C413.441917,8.30439408 413.348253,9.0476775 413.348253,9.51970652 C413.348253,12.3644001 415.668521,14.6791043 418.519707,14.6791043 C421.371355,14.6791043 423.691624,12.3644001 423.691624,9.51970652 C423.691624,9.0476775 423.62439,8.31598614 423.281264,7.90609061 L425.406322,7.90609061 L425.406322,15.874942 L425.406322,15.874942 Z" id="Instagram"></path>
            </g>
        </g>
    </g>
</svg>